<svg width="492" height="122" viewBox="0 0 492 122" fill="none" xmlns="http://www.w3.org/2000/svg">
<path fill-rule="evenodd" clip-rule="evenodd" d="M54.7847 51.5193L-2.50376e-06 51.5193L-6.04153e-07 8.06152L70.0814 8.06152C70.0814 24.5191 64.3528 39.636 54.7847 51.5193ZM-3.63163e-06 77.3221L0.960026 77.3221C22.7102 77.3221 42.1141 67.2559 54.7847 51.5193L70.0814 51.5193C70.0814 89.7709 39.1347 120.78 0.960024 120.78L-5.53123e-06 120.78L-3.63163e-06 77.3221Z" fill="#1E1E1E"/>
<path d="M492 31.9263V120.066H471.765V31.9263H492Z" fill="#1E1E1E"/>
<path d="M461.767 73.8367C461.767 77.1426 461.803 79.4088 461.381 82.0749H394.283C395.265 95.1671 406.565 106.149 419.326 106.149C429.039 106.149 435.901 101.044 439.913 92.8322H460.381C454.291 111.534 438.478 121.506 419.326 121.506C393.154 121.506 374.787 101.632 374.787 75.9162C374.787 50.0114 392.976 30.4868 419.326 30.4868C443.929 30.4868 461.767 49.5933 461.767 73.8367ZM442.974 67.5782C442.531 54.5814 431.274 45.8432 418.535 45.8432C405.795 45.8432 396.168 55.5077 394.674 67.5782H442.974Z" fill="#1E1E1E"/>
<path d="M332.313 121.506C320.456 121.506 308.224 117.449 300.885 107.589C297.711 103.216 296.018 98.3643 295.806 93.0322H315.528C316.235 101.35 325.815 106.149 332.988 106.149C338.543 106.149 348.027 102.762 348.027 95.5916C348.027 92.2857 346.44 89.7331 343.266 88.1334C340.197 86.5338 335.276 84.7742 328.504 82.8547C321.943 81.0418 316.599 79.2822 312.472 77.5759C303.269 73.7708 297.234 66.0922 297.234 55.9209C297.234 45.8029 304.242 37.7548 313.107 33.846C318.292 31.6066 325.21 30.4868 331.877 30.4868C341.824 30.4868 350.805 33.0462 356.837 38.165C362.974 43.1772 366.255 50.0556 366.678 58.8002H347.591C346.929 50.5701 338.525 45.8432 331.242 45.8432C325.995 45.8432 317.472 49.0789 317.472 55.7609C317.472 60.7892 322.002 63.2824 326.202 64.9389C328.636 65.792 332.234 66.9117 336.996 68.2981C343.345 70.0043 348.53 71.7639 352.551 73.5768C361.564 77.303 367.602 85.4635 367.789 95.4316C367.789 114.25 348.374 121.506 332.313 121.506Z" fill="#1E1E1E"/>
<path d="M252.243 30.4868C273.53 30.4868 286.121 46.5881 286.121 68.078V120.066H266.207V71.7972C266.207 58.9516 261.044 47.3229 247.284 47.3229C233.928 47.3229 227.212 58.5803 227.212 72.7969V120.066H207.139V31.9265H227.212V47.003C231.622 37.0854 239.06 30.4868 252.243 30.4868Z" fill="#1E1E1E"/>
<path d="M189.196 31.9263V120.066H168.96V31.9263H189.196Z" fill="#1E1E1E"/>
<path d="M131.169 32.9861C131.169 23.2843 137.811 0 167.117 0V18.11C158.486 18.11 151.435 21.9908 151.435 34.2797V50.2295V85.1495V120.07H131.169V50.2295H117.782V33.1284H131.169V32.9861Z" fill="#1E1E1E"/>
</svg>
